<mxfile host="Electron" modified="2023-11-27T17:33:24.553Z" agent="Mozilla/5.0 (Windows NT 10.0; Win64; x64) AppleWebKit/537.36 (KHTML, like Gecko) draw.io/22.0.2 Chrome/114.0.5735.289 Electron/25.8.4 Safari/537.36" etag="MGDQICvfTxmnBdqQ1naA" version="22.0.2" type="device">
  <diagram name="Page-1" id="10a91c8b-09ff-31b1-d368-03940ed4cc9e">
    <mxGraphModel dx="2229" dy="1554" grid="1" gridSize="10" guides="1" tooltips="1" connect="1" arrows="1" fold="1" page="1" pageScale="1" pageWidth="1100" pageHeight="850" background="none" math="0" shadow="0">
      <root>
        <mxCell id="0" />
        <mxCell id="1" parent="0" />
        <mxCell id="SX9heS2GB_tVkTNEK_1r-12" value="" style="group;fontSize=25;" vertex="1" connectable="0" parent="1">
          <mxGeometry x="195" y="30" width="710" height="790" as="geometry" />
        </mxCell>
        <mxCell id="62893188c0fa7362-1" value="Student" style="whiteSpace=wrap;html=1;rounded=1;shadow=1;labelBackgroundColor=none;strokeWidth=1;fontFamily=Verdana;fontSize=25;align=center;" parent="SX9heS2GB_tVkTNEK_1r-12" vertex="1">
          <mxGeometry width="710" height="92.94117647058823" as="geometry" />
        </mxCell>
        <mxCell id="62893188c0fa7362-2" value="&lt;span style=&quot;font-size: 25px;&quot;&gt;Bio Metric Scanner&lt;/span&gt;" style="whiteSpace=wrap;html=1;rounded=1;shadow=1;labelBackgroundColor=none;strokeWidth=1;fontFamily=Verdana;fontSize=25;align=center;" parent="SX9heS2GB_tVkTNEK_1r-12" vertex="1">
          <mxGeometry y="185.88235294117646" width="710" height="92.94117647058823" as="geometry" />
        </mxCell>
        <mxCell id="SX9heS2GB_tVkTNEK_1r-3" style="edgeStyle=orthogonalEdgeStyle;rounded=0;orthogonalLoop=1;jettySize=auto;html=1;exitX=0.75;exitY=1;exitDx=0;exitDy=0;entryX=0.75;entryY=0;entryDx=0;entryDy=0;fontSize=25;" edge="1" parent="SX9heS2GB_tVkTNEK_1r-12" source="62893188c0fa7362-1" target="62893188c0fa7362-2">
          <mxGeometry relative="1" as="geometry" />
        </mxCell>
        <mxCell id="SX9heS2GB_tVkTNEK_1r-7" value="Places Thumb" style="edgeLabel;html=1;align=center;verticalAlign=middle;resizable=0;points=[];fontSize=25;" vertex="1" connectable="0" parent="SX9heS2GB_tVkTNEK_1r-3">
          <mxGeometry x="-0.0719" y="3" relative="1" as="geometry">
            <mxPoint as="offset" />
          </mxGeometry>
        </mxCell>
        <mxCell id="62893188c0fa7362-5" value="" style="rounded=0;html=1;labelBackgroundColor=none;startArrow=none;startFill=0;startSize=5;endArrow=none;endFill=0;endSize=5;jettySize=auto;orthogonalLoop=1;strokeWidth=1;fontFamily=Verdana;fontSize=25;" parent="SX9heS2GB_tVkTNEK_1r-12" edge="1">
          <mxGeometry x="-0.359" y="-11" relative="1" as="geometry">
            <mxPoint as="offset" />
            <mxPoint x="260.33333333333337" y="92.94117647058823" as="sourcePoint" />
            <mxPoint x="260.33333333333337" y="185.88235294117646" as="targetPoint" />
          </mxGeometry>
        </mxCell>
        <mxCell id="62893188c0fa7362-8" value="Academic Management System" style="whiteSpace=wrap;html=1;rounded=1;shadow=1;labelBackgroundColor=none;strokeWidth=1;fontFamily=Verdana;fontSize=25;align=center;" parent="SX9heS2GB_tVkTNEK_1r-12" vertex="1">
          <mxGeometry y="356.27450980392155" width="710" height="92.94117647058823" as="geometry" />
        </mxCell>
        <mxCell id="SX9heS2GB_tVkTNEK_1r-4" style="edgeStyle=orthogonalEdgeStyle;rounded=0;orthogonalLoop=1;jettySize=auto;html=1;exitX=0.75;exitY=1;exitDx=0;exitDy=0;entryX=0.75;entryY=0;entryDx=0;entryDy=0;fontSize=25;" edge="1" parent="SX9heS2GB_tVkTNEK_1r-12" source="62893188c0fa7362-2" target="62893188c0fa7362-8">
          <mxGeometry relative="1" as="geometry" />
        </mxCell>
        <mxCell id="SX9heS2GB_tVkTNEK_1r-8" value="Mark Attendance" style="edgeLabel;html=1;align=center;verticalAlign=middle;resizable=0;points=[];rotation=0;fontSize=25;" vertex="1" connectable="0" parent="SX9heS2GB_tVkTNEK_1r-4">
          <mxGeometry x="-0.1216" y="-3" relative="1" as="geometry">
            <mxPoint x="3" as="offset" />
          </mxGeometry>
        </mxCell>
        <mxCell id="62893188c0fa7362-13" value="Firebase Notifications" style="whiteSpace=wrap;html=1;rounded=1;shadow=1;labelBackgroundColor=none;strokeWidth=1;fontFamily=Verdana;fontSize=25;align=center;" parent="SX9heS2GB_tVkTNEK_1r-12" vertex="1">
          <mxGeometry y="511.1764705882352" width="710" height="92.94117647058823" as="geometry" />
        </mxCell>
        <mxCell id="SX9heS2GB_tVkTNEK_1r-5" style="edgeStyle=orthogonalEdgeStyle;rounded=0;orthogonalLoop=1;jettySize=auto;html=1;exitX=0.75;exitY=1;exitDx=0;exitDy=0;entryX=0.75;entryY=0;entryDx=0;entryDy=0;fontSize=25;" edge="1" parent="SX9heS2GB_tVkTNEK_1r-12" source="62893188c0fa7362-8" target="62893188c0fa7362-13">
          <mxGeometry relative="1" as="geometry" />
        </mxCell>
        <mxCell id="SX9heS2GB_tVkTNEK_1r-9" value="Push Notifications" style="edgeLabel;html=1;align=center;verticalAlign=middle;resizable=0;points=[];fontSize=25;" vertex="1" connectable="0" parent="SX9heS2GB_tVkTNEK_1r-5">
          <mxGeometry x="-0.1078" y="-1" relative="1" as="geometry">
            <mxPoint as="offset" />
          </mxGeometry>
        </mxCell>
        <mxCell id="62893188c0fa7362-14" value="" style="rounded=0;html=1;labelBackgroundColor=none;startArrow=none;startFill=0;startSize=5;endArrow=none;endFill=0;endSize=5;jettySize=auto;orthogonalLoop=1;strokeWidth=1;fontFamily=Verdana;fontSize=25;" parent="SX9heS2GB_tVkTNEK_1r-12" edge="1">
          <mxGeometry x="-0.2" y="-14" relative="1" as="geometry">
            <mxPoint as="offset" />
            <mxPoint x="242.58333333333334" y="278.82352941176464" as="sourcePoint" />
            <mxPoint x="242.58333333333334" y="356.27450980392155" as="targetPoint" />
          </mxGeometry>
        </mxCell>
        <mxCell id="62893188c0fa7362-19" value="" style="rounded=0;html=1;labelBackgroundColor=none;startArrow=none;startFill=0;startSize=5;endArrow=none;endFill=0;endSize=5;jettySize=auto;orthogonalLoop=1;strokeWidth=1;fontFamily=Verdana;fontSize=25;" parent="SX9heS2GB_tVkTNEK_1r-12" edge="1">
          <mxGeometry x="-0.2842" y="12" relative="1" as="geometry">
            <mxPoint as="offset" />
            <mxPoint x="236.66666666666669" y="449.2156862745098" as="sourcePoint" />
            <mxPoint x="236.66666666666669" y="511.1764705882352" as="targetPoint" />
          </mxGeometry>
        </mxCell>
        <mxCell id="62893188c0fa7362-26" value="" style="rounded=0;html=1;labelBackgroundColor=none;startArrow=none;startFill=0;startSize=5;endArrow=none;endFill=0;endSize=5;jettySize=auto;orthogonalLoop=1;strokeWidth=1;fontFamily=Verdana;fontSize=25;" parent="SX9heS2GB_tVkTNEK_1r-12" edge="1">
          <mxGeometry x="0.0033" y="-12" relative="1" as="geometry">
            <mxPoint as="offset" />
            <mxPoint x="230.75000000000003" y="604.1176470588234" as="sourcePoint" />
            <mxPoint x="230.75000000000003" y="697.0588235294117" as="targetPoint" />
          </mxGeometry>
        </mxCell>
        <mxCell id="SX9heS2GB_tVkTNEK_1r-1" value="&lt;span style=&quot;font-size: 25px;&quot;&gt;Records&lt;/span&gt;" style="whiteSpace=wrap;html=1;rounded=1;shadow=1;labelBackgroundColor=none;strokeWidth=1;fontFamily=Verdana;fontSize=25;align=center;" vertex="1" parent="SX9heS2GB_tVkTNEK_1r-12">
          <mxGeometry y="697.0588235294117" width="710" height="92.94117647058823" as="geometry" />
        </mxCell>
        <mxCell id="SX9heS2GB_tVkTNEK_1r-6" style="edgeStyle=orthogonalEdgeStyle;rounded=0;orthogonalLoop=1;jettySize=auto;html=1;exitX=0.75;exitY=1;exitDx=0;exitDy=0;entryX=0.75;entryY=0;entryDx=0;entryDy=0;fontSize=25;" edge="1" parent="SX9heS2GB_tVkTNEK_1r-12" source="62893188c0fa7362-13" target="SX9heS2GB_tVkTNEK_1r-1">
          <mxGeometry relative="1" as="geometry" />
        </mxCell>
        <mxCell id="SX9heS2GB_tVkTNEK_1r-10" value="Store Records" style="edgeLabel;html=1;align=center;verticalAlign=middle;resizable=0;points=[];fontSize=25;" vertex="1" connectable="0" parent="SX9heS2GB_tVkTNEK_1r-6">
          <mxGeometry x="-0.0523" y="-3" relative="1" as="geometry">
            <mxPoint as="offset" />
          </mxGeometry>
        </mxCell>
      </root>
    </mxGraphModel>
  </diagram>
</mxfile>
